<svg id="Calque_1" data-name="Calque 1" xmlns="http://www.w3.org/2000/svg" viewBox="0 0 386.9 368.85"><defs><style>.cls-1{fill:#f05d5e;}.cls-2{fill:#0f7173;}.cls-3{fill:#fca17d;}.cls-4{fill:#272932;}</style></defs><title>logo</title><path class="cls-1" d="M318.6,294.55a11,11,0,0,1-2.5,2.8l-117.2,69.9a11.84,11.84,0,0,1-6.1,1.6,12.1,12.1,0,0,1-6.1-1.6l-117.2-70a9.52,9.52,0,0,1-2.5-2.8l125.8-75.2Z"/><path class="cls-2" d="M321.6,298.85l-128.9-93.2V77.85l10.5-6.1,113,71.4a11.81,11.81,0,0,1,5.4,9.8v145.9Z"/><path class="cls-3" d="M72.4,292.75l120.4-87v-125l-14.9-6.1L69.3,143.25a11.81,11.81,0,0,0-5.4,9.8V284Z"/><path class="cls-4" d="M357.4,340.55A29.5,29.5,0,1,0,327.9,311,29.49,29.49,0,0,0,357.4,340.55Z"/><path class="cls-4" d="M332.9,282.55l-1.2-67.8a10.18,10.18,0,0,0-10.1-10h-.2a10.16,10.16,0,0,0-10,10.3l1.1,60.2-108.1-64.6V85.75l52.6,33.2a10,10,0,0,0,5.4,1.6,10.11,10.11,0,0,0,5.4-18.7l-59.9-37.9a37.27,37.27,0,0,1-31.3-.5c-.3.2-.7.3-1,.5l-61.1,38.6a10.29,10.29,0,0,0-3.2,14,10,10,0,0,0,8.6,4.7,9.72,9.72,0,0,0,5.4-1.6l55.8-35.3v126.3L74.3,274.55,75.4,215a10.15,10.15,0,1,0-20.3-.3l-1.2,66.6a37.61,37.61,0,0,1,13.3,28.6v1.5l60.4,35.7a9.69,9.69,0,0,0,5.2,1.4,10.15,10.15,0,0,0,5.1-18.9l-55.6-32.9,110.6-66L304,297.15l-54.9,32.5a10.15,10.15,0,0,0,5.1,18.9,11,11,0,0,0,5.2-1.4l60.6-35.8V311A36.66,36.66,0,0,1,332.9,282.55Z"/><path class="cls-4" d="M192.8,60a30,30,0,1,0-30-30A30.09,30.09,0,0,0,192.8,60Z"/><path class="cls-4" d="M29.5,280.55A29.5,29.5,0,1,0,59,310,29.49,29.49,0,0,0,29.5,280.55Z"/><path class="cls-4" d="M357.4,281.55A29.5,29.5,0,1,1,327.9,311,29.49,29.49,0,0,1,357.4,281.55Z"/></svg>