<?xml version="1.0" encoding="iso-8859-1"?>
<!-- Generator: Adobe Illustrator 19.0.0, SVG Export Plug-In . SVG Version: 6.00 Build 0)  -->
<svg version="1.1" id="Capa_1" xmlns="http://www.w3.org/2000/svg" xmlns:xlink="http://www.w3.org/1999/xlink" x="0px" y="0px"
	 viewBox="0 0 490.473 490.473" style="enable-background:new 0 0 490.473 490.473;" xml:space="preserve">
<g>
	<g>
		<path fill="#272932" d="M399.89,203.989l-149.333-85.333c-3.264-1.877-7.317-1.877-10.581,0L90.642,203.989c-3.328,1.899-5.376,5.44-5.376,9.259
			v170.667c0,3.819,2.048,7.36,5.376,9.259l149.333,85.333c1.643,0.939,3.477,1.408,5.291,1.408c1.835,0,3.669-0.469,5.291-1.408
			l149.333-85.333c3.328-1.899,5.376-5.44,5.376-9.259V213.247C405.266,209.429,403.218,205.887,399.89,203.989z M383.933,377.727
			l-138.667,79.232l-138.667-79.232h0V219.434l138.667-79.232l138.667,79.232V377.727z"/>
	</g>
</g>
<g>
	<g>
		<path fill="#272932" d="M403.858,207.957c-2.944-5.12-9.451-6.912-14.549-3.968l-144.043,82.304l-144.043-82.304
			c-5.12-2.944-11.627-1.152-14.549,3.968c-0.96,1.685-1.408,3.499-1.408,5.291c0,3.691,1.941,7.296,5.376,9.259l143.957,82.261
			v164.48c0,5.888,4.779,10.667,10.667,10.667c5.909,0,10.667-4.779,10.667-10.667v-164.48l143.957-82.261
			C405.01,219.583,406.781,213.077,403.858,207.957z"/>
	</g>
</g>
<g>
	<g>
		<path fill="#272932" d="M274.194,35.007l-21.269-21.269c-0.213-0.213-0.448-0.427-0.683-0.64c-1.621-1.387-3.584-2.197-5.611-2.453
			c-0.021,0-0.021,0-0.021,0c-0.619-0.064-1.216-0.064-1.856-0.085c-2.517,0.149-5.013,1.195-6.933,3.115l-21.333,21.333
			c-2.069,2.091-3.115,4.821-3.115,7.552c0,2.731,1.024,5.461,3.115,7.552c4.16,4.16,10.923,4.16,15.083,0l3.115-3.115v38.251
			c0,5.888,4.779,10.667,10.667,10.667s10.667-4.779,10.645-10.667V46.975l3.115,3.115c4.16,4.16,10.923,4.16,15.083,0
			C278.354,45.93,278.354,39.167,274.194,35.007z"/>
	</g>
</g>
<g>
	<g>
		<path fill="#272932" d="M490.109,430.186c0-0.021,0-0.021,0-0.021v-0.021l-8-29.077c-1.557-5.675-7.509-9.045-13.12-7.445
			c-4.736,1.301-7.829,5.589-7.829,10.283c0,0.917,0.128,1.877,0.384,2.816l1.173,4.245l-26.432-15.019
			c-5.163-2.923-11.669-1.109-14.549,4.011c-2.901,5.141-1.109,11.648,4.011,14.549l26.432,15.019l-4.267,1.173
			c-5.675,1.557-9.003,7.445-7.445,13.12c1.301,4.715,5.589,7.829,10.261,7.829c0.939,0,1.899-0.128,2.837-0.427l28.992-8
			c0.299-0.064,0.576-0.171,0.853-0.256c2.005-0.704,3.669-1.984,4.885-3.584c0.427-0.555,0.789-1.173,1.109-1.792
			C490.493,435.37,490.791,432.767,490.109,430.186z"/>
	</g>
</g>
<g>
	<g>
		<path fill="#272932" d="M68.733,399.999c-2.901-5.12-9.387-6.912-14.549-4.011l-26.432,15.019l1.173-4.245c0.256-0.939,0.384-1.899,0.384-2.816
			c0.021-4.672-3.093-8.981-7.829-10.283c-5.696-1.579-11.563,1.749-13.12,7.445l-8,29.077v0.021v0.021
			c-0.683,2.56-0.363,5.184,0.704,7.403c0.32,0.619,0.683,1.237,1.109,1.792c1.216,1.579,2.859,2.837,4.843,3.563
			c0.299,0.107,0.597,0.213,0.917,0.299l29.013,7.979c0.939,0.256,1.899,0.384,2.837,0.384c4.672,0,8.96-3.093,10.219-7.787
			c1.557-5.675-1.771-11.563-7.445-13.12l-4.267-1.173l26.432-15.019C69.863,411.626,71.655,405.119,68.733,399.999z"/>
	</g>
</g>
</svg>
